<svg xmlns="http://www.w3.org/2000/svg" width="23" height="15" viewBox="0 0 17 11">
    <path fill="#FFF" d="M11.36.148c.074-.099.173-.148.296-.148.124 0 .223.05.297.148l4.899 4.899c.098.074.148.173.148.297 0 .123-.05.222-.148.297l-4.899 4.898c-.074.099-.173.148-.297.148-.123 0-.222-.049-.297-.148l-.742-.705c-.099-.099-.148-.21-.148-.334 0-.124.05-.223.148-.297l3.006-2.894H.82c-.123 0-.229-.044-.315-.13-.087-.087-.13-.192-.13-.316V4.824c0-.123.043-.229.13-.315.086-.087.192-.13.315-.13h12.803l-3.006-2.895c-.099-.074-.148-.173-.148-.297 0-.123.05-.235.148-.333l.742-.706z"/>
</svg>
