<?xml version="1.0" encoding="UTF-8"?>
<svg width="96px" height="19px" viewBox="0 0 96 19" version="1.1" xmlns="http://www.w3.org/2000/svg" xmlns:xlink="http://www.w3.org/1999/xlink">
    <title>Group Copy 3</title>
    <g id="User" stroke="none" stroke-width="1" fill="none" fill-rule="evenodd">
        <g id="ORG-QR-Scherm-Copy-2" transform="translate(-897.000000, -140.000000)">
            <g id="Group-Copy-3" transform="translate(898.000000, 140.000000)">
                <path d="M33.852,18.14 L33.852,13.172 C34.302,13.676 35.094,14.18 36.39,14.18 C38.82,14.18 40.458,12.182 40.458,9.446 C40.458,6.71 38.82,4.694 36.39,4.694 C35.076,4.694 34.194,5.234 33.708,5.9 L33.582,4.874 L31.206,4.874 L31.206,18.14 L33.852,18.14 Z M35.742,11.876 C34.824,11.876 34.248,11.39 33.852,10.724 L33.852,8.15 C34.248,7.502 34.824,6.998 35.742,6.998 C36.948,6.998 37.794,7.934 37.794,9.446 C37.794,10.94 36.948,11.876 35.742,11.876 Z M44.796,14 L44.796,8.528 C45.318,7.862 46.002,7.322 47.082,7.322 L47.298,7.322 L47.298,4.694 C46.02,4.694 45.12,5.342 44.67,6.08 L44.508,4.874 L42.15,4.874 L42.15,14 L44.796,14 Z M52.752,14.18 C54.462,14.18 55.668,13.64 56.622,12.542 L54.804,11.066 C54.408,11.606 53.706,12.002 52.806,12.002 C51.492,12.002 50.772,11.336 50.718,10.166 L56.892,10.166 L56.892,9.32 C56.892,6.818 55.506,4.694 52.644,4.694 C49.926,4.694 48.054,6.728 48.054,9.464 C48.054,12.2 49.89,14.18 52.752,14.18 Z M54.282,8.492 L50.718,8.492 C50.772,7.448 51.474,6.692 52.554,6.692 C53.634,6.692 54.246,7.466 54.282,8.492 Z M61.41,14.18 C63.876,14.18 65.388,12.974 65.388,11.156 C65.388,9.788 64.452,8.924 62.526,8.456 C61.23,8.15 60.888,7.97 60.888,7.502 C60.888,7.016 61.302,6.782 62.076,6.782 C62.994,6.782 63.732,7.142 64.254,7.556 L65.244,5.684 C64.542,5.072 63.336,4.694 62.076,4.694 C59.664,4.694 58.242,5.864 58.242,7.682 C58.242,9.104 59.178,9.824 61.176,10.31 C62.4,10.598 62.724,10.85 62.724,11.336 C62.724,11.858 62.238,12.11 61.428,12.11 C60.402,12.11 59.538,11.714 58.926,11.192 L57.918,13.082 C58.692,13.748 60.024,14.18 61.41,14.18 Z M71.112,14.18 C72.822,14.18 74.028,13.64 74.982,12.542 L73.164,11.066 C72.768,11.606 72.066,12.002 71.166,12.002 C69.852,12.002 69.132,11.336 69.078,10.166 L75.252,10.166 L75.252,9.32 C75.252,6.818 73.866,4.694 71.004,4.694 C68.286,4.694 66.414,6.728 66.414,9.464 C66.414,12.2 68.25,14.18 71.112,14.18 Z M72.642,8.492 L69.078,8.492 C69.132,7.448 69.834,6.692 70.914,6.692 C71.994,6.692 72.606,7.466 72.642,8.492 Z M79.662,14 L79.662,8.258 C80.004,7.7 80.562,7.178 81.39,7.178 C82.326,7.178 82.884,7.88 82.884,8.888 L82.884,14 L85.53,14 L85.53,8.744 C85.53,6.278 84.324,4.694 82.11,4.694 C80.85,4.694 79.968,5.216 79.518,5.882 L79.392,4.874 L77.016,4.874 L77.016,14 L79.662,14 Z M92.01,14.18 C92.946,14.18 93.612,13.91 94.098,13.622 L93.432,11.534 C93.18,11.678 92.802,11.804 92.262,11.804 C91.506,11.804 91.002,11.354 91.002,10.562 L91.002,7.106 L93.612,7.106 L93.612,4.874 L91.002,4.874 L91.002,1.85 L88.356,1.85 L88.356,4.874 L86.718,4.874 L86.718,7.106 L88.356,7.106 L88.356,10.598 C88.356,12.902 89.778,14.18 92.01,14.18 Z" id="present" fill="#212A3D" fill-rule="nonzero"></path>
                <g id="streamline-icon-iris-scan-approved-alternate@140x140" transform="translate(0.000000, 1.625000)" stroke="#FA4A69" stroke-linecap="round" stroke-linejoin="round" stroke-width="2">
                    <path d="M11.88,0.045 C7.64745,-0.03375 3.27,3.25485 0.51795,6.618 C-0.0813017659,7.37982905 -0.0813017659,8.45282095 0.51795,9.21465 C3.2133,12.5106 7.575,15.87375 11.88,15.795 C16.185,15.87585 20.5509,12.5127 23.2452,9.2178 C23.8444518,8.45597095 23.8444518,7.38297905 23.2452,6.62115 C20.49,3.2559 16.1157,-0.0327 11.88,0.045 Z" id="Path"></path>
                    <polyline id="Path" points="8.73315 8.7075 11.09565 11.07 15.82065 4.77"></polyline>
                </g>
            </g>
        </g>
    </g>
</svg>