<?xml version="1.0" encoding="UTF-8" standalone="no"?>
<svg width="148px" height="24px" viewBox="0 0 148 24" version="1.1" xmlns="http://www.w3.org/2000/svg" xmlns:xlink="http://www.w3.org/1999/xlink">
    <!-- Generator: Sketch 3.7.2 (28276) - http://www.bohemiancoding.com/sketch -->
    <title>Group 3</title>
    <desc>Created with Sketch.</desc>
    <defs></defs>
    <g id="Page-1" stroke="none" stroke-width="1" fill="none" fill-rule="evenodd">
        <g id="Homepage-Schluss" transform="translate(-147.000000, -20.000000)">
            <g id="Group-3" transform="translate(148.000000, 20.000000)">
                <path d="M19.0439,14.5029 L19.0439,22.1489 M29.6289,20.2659 C27.7089,18.4639 26.2549,16.1719 25.4659,13.5889 M37.2379,16.1539 C34.8569,14.9439 32.8359,13.1299 31.3749,10.9129 M8.4589,20.2659 C10.3789,18.4639 11.8339,16.1719 12.6229,13.5889 M0.8499,16.1539 C3.2309,14.9439 5.2519,13.1299 6.7129,10.9129 M35.2639,7.7849 C26.3059,16.7429 11.7819,16.7429 2.8239,7.7849" id="Stroke-1" stroke="#FB637E" stroke-width="3.701" stroke-linecap="round"></path>
                <path d="M56.9018,7.4209 C53.0388,7.4209 50.7608,9.2949 50.7608,12.2069 C50.7608,14.4849 52.2598,15.6379 55.4598,16.4159 C57.4208,16.8779 57.9398,17.2809 57.9398,18.0599 C57.9398,18.8959 57.1608,19.2999 55.8638,19.2999 C54.2208,19.2999 52.8368,18.6649 51.8558,17.8289 L50.2418,20.8569 C51.4818,21.9229 53.6148,22.6149 55.8348,22.6149 C59.7848,22.6149 62.2068,20.6839 62.2068,17.7719 C62.2068,15.5799 60.7078,14.1959 57.6228,13.4469 C55.5468,12.9569 54.9988,12.6679 54.9988,11.9189 C54.9988,11.1399 55.6618,10.7649 56.9018,10.7649 C58.3718,10.7649 59.5538,11.3419 60.3908,12.0049 L61.9758,9.0069 C60.8518,8.0259 58.9198,7.4209 56.9018,7.4209 L56.9018,7.4209 Z M71.4038,7.4209 C66.9638,7.4209 63.8498,10.6499 63.8498,15.0329 C63.8498,19.4149 66.9638,22.6149 71.4328,22.6149 C74.1428,22.6149 76.1318,21.3749 77.4588,19.2999 L74.4888,17.0219 C73.8838,18.1459 72.8738,18.9539 71.4618,18.9539 C69.2988,18.9539 68.1168,17.1949 68.1168,15.0329 C68.1168,12.8409 69.2708,11.0829 71.4328,11.0829 C72.8738,11.0829 73.8258,11.8899 74.4028,13.0139 L77.4298,10.7649 C76.1038,8.6609 74.1138,7.4209 71.4038,7.4209 L71.4038,7.4209 Z M83.9168,0.4149 L79.6778,0.4149 L79.6778,22.3269 L83.9168,22.3269 L83.9168,13.1299 C84.4638,12.2359 85.3578,11.3999 86.6838,11.3999 C88.1838,11.3999 89.0768,12.5239 89.0768,14.1389 L89.0768,22.3269 L93.3158,22.3269 L93.3158,13.9079 C93.3158,9.9579 91.3838,7.4209 87.8378,7.4209 C85.9918,7.4209 84.7818,8.0839 83.9168,9.0069 L83.9168,0.4149 Z M101.0998,0.4149 L96.8618,0.4149 L96.8618,22.3269 L101.0998,22.3269 L101.0998,0.4149 Z M118.1968,7.7089 L113.9588,7.7089 L113.9588,16.9069 C113.3818,17.7999 112.5458,18.6359 111.1618,18.6359 C109.7208,18.6359 108.9128,17.5409 108.9128,15.9549 L108.9128,7.7089 L104.6748,7.7089 L104.6748,16.1859 C104.6748,20.1069 106.4908,22.6149 109.9508,22.6149 C112.0558,22.6149 113.4108,21.8079 114.1888,20.7409 L114.3908,22.3269 L118.1968,22.3269 L118.1968,7.7089 Z M127.5378,7.4209 C123.6748,7.4209 121.3968,9.2949 121.3968,12.2069 C121.3968,14.4849 122.8958,15.6379 126.0968,16.4159 C128.0568,16.8779 128.5758,17.2809 128.5758,18.0599 C128.5758,18.8959 127.7978,19.2999 126.4998,19.2999 C124.8568,19.2999 123.4728,18.6649 122.4928,17.8289 L120.8778,20.8569 C122.1178,21.9229 124.2518,22.6149 126.4718,22.6149 C130.4208,22.6149 132.8428,20.6839 132.8428,17.7719 C132.8428,15.5799 131.3438,14.1959 128.2588,13.4469 C126.1828,12.9569 125.6348,12.6679 125.6348,11.9189 C125.6348,11.1399 126.2988,10.7649 127.5378,10.7649 C129.0088,10.7649 130.1908,11.3419 131.0268,12.0049 L132.6128,9.0069 C131.4878,8.0259 129.5568,7.4209 127.5378,7.4209 L127.5378,7.4209 Z M141.1178,7.4209 C137.2538,7.4209 134.9768,9.2949 134.9768,12.2069 C134.9768,14.4849 136.4758,15.6379 139.6758,16.4159 C141.6368,16.8779 142.1558,17.2809 142.1558,18.0599 C142.1558,18.8959 141.3768,19.2999 140.0798,19.2999 C138.4358,19.2999 137.0528,18.6649 136.0718,17.8289 L134.4578,20.8569 C135.6968,21.9229 137.8308,22.6149 140.0508,22.6149 C144.0008,22.6149 146.4228,20.6839 146.4228,17.7719 C146.4228,15.5799 144.9238,14.1959 141.8388,13.4469 C139.7628,12.9569 139.2148,12.6679 139.2148,11.9189 C139.2148,11.1399 139.8778,10.7649 141.1178,10.7649 C142.5878,10.7649 143.7698,11.3419 144.6058,12.0049 L146.1918,9.0069 C145.0678,8.0259 143.1358,7.4209 141.1178,7.4209 L141.1178,7.4209 Z" id="Fill-3" fill="#FB637E"></path>
            </g>
        </g>
    </g>
</svg>